<?xml version="1.0" encoding="utf-8"?>
<!-- Generator: Adobe Illustrator 28.1.0, SVG Export Plug-In . SVG Version: 6.00 Build 0)  -->
<svg version="1.1" id="Ebene_1" xmlns="http://www.w3.org/2000/svg" xmlns:xlink="http://www.w3.org/1999/xlink" x="0px" y="0px"
	 viewBox="0 0 500 500" style="enable-background:new 0 0 500 500;" xml:space="preserve">
<style type="text/css">
	.st0{fill:#BE1622;}
</style>
<g>
	<g>
		<path d="M225.3,408.3c-0.3,0-0.5,0-0.8-0.1c-6.8-1.1-13.6-2.8-20-4.8l-93.4-29.8c-17.3-5.5-29-21.5-29-39.7V189.8
			c0-2.6,2.1-4.6,4.6-4.6c2.6,0,4.6,2.1,4.6,4.6V334c0,14.1,9.1,26.5,22.5,30.8l93.4,29.8c6.1,1.9,12.4,3.5,18.8,4.5
			c2.5,0.4,4.2,2.8,3.8,5.3C229.5,406.7,227.5,408.3,225.3,408.3z"/>
		<path d="M411.6,263.4c-2.6,0-4.6-2.1-4.6-4.6v-69c0-2.6,2.1-4.6,4.6-4.6c2.6,0,4.6,2.1,4.6,4.6v69
			C416.2,261.4,414.1,263.4,411.6,263.4z"/>
		<path d="M488.4,127.1L264.9,66.3c-10.3-2.8-21.2-2.8-31.5,0L9.9,127.1c-4.8,1.3-8.2,5.4-8.4,10.4c-0.2,0.5-0.3,1-0.3,1.6v104.4
			c0,2.6,2.1,4.6,4.6,4.6s4.6-2.1,4.6-4.6v-94.1l223,60.6c5.2,1.4,10.5,2.1,15.8,2.1s10.6-0.7,15.8-2.1l223.5-60.8
			c5.1-1.4,8.5-5.8,8.5-11.1C496.9,132.9,493.4,128.4,488.4,127.1z M485.9,140.3l-223.5,60.8c-8.7,2.4-18,2.4-26.7,0L12.3,140.3
			c-1.4-0.4-1.7-1.5-1.7-2.2c0-0.6,0.2-1.8,1.7-2.2l223.5-60.8c4.4-1.2,8.9-1.8,13.3-1.8s9,0.6,13.3,1.8L485.9,136
			c1.4,0.4,1.7,1.5,1.7,2.2C487.6,138.8,487.4,139.9,485.9,140.3z"/>
		<path d="M5.8,294.2c-2.6,0-4.6-2.1-4.6-4.6v-21.9c0-2.6,2.1-4.6,4.6-4.6s4.6,2.1,4.6,4.6v21.9C10.4,292.1,8.3,294.2,5.8,294.2z"/>
	</g>
	<path class="st0" d="M498.5,346.1c-6.9-26.9-3.5-46.5-0.8-55.9c1-3.5,0.3-7.2-1.9-10.1c-2.2-2.9-5.5-4.5-9.1-4.5H262.3
		c-11.7,0-21.2,9.5-21.2,21.2V339c0,5.8,2.4,11.1,6.2,15c-3.7,2.7-6.2,7.1-6.2,12.1v44.5c0,13.9,11.3,25.2,25.2,25.2H465
		c4.1,0,7.9-1.8,10.4-5.1c2.5-3.2,3.4-7.3,2.4-11.5c-3.3-13.7-8.9-36.7,2.2-58.1c0.1-0.3,0.3-0.6,0.3-0.9h7c3.6,0,6.9-1.6,9.1-4.4
		C498.6,353,499.4,349.5,498.5,346.1z M489.1,350.1c-0.2,0.3-0.8,0.9-1.8,0.9H334.3c-2.6,0-4.6,2.1-4.6,4.6c0,2.6,2.1,4.6,4.6,4.6
		h135.9c-2.6,5.8-4.2,11.7-5.1,17.4H362.5c-1.9,0-3.5,1.6-3.5,3.5c0,1.9,1.6,3.5,3.5,3.5h101.9c-0.4,6,0,11.7,0.6,17.1H341.8
		c-1.9,0-3.5,1.6-3.5,3.5s1.6,3.5,3.5,3.5h124c0,0,0.1,0,0.1,0c0.9,4.9,2,9.3,2.9,13.1c0.4,1.6-0.3,2.8-0.7,3.3
		c-0.8,1-1.9,1.5-3.2,1.5H266.3c-8.8,0-16-7.2-16-16V366c0-3.1,2.5-5.7,5.7-5.7h3.4c0.4,0,0.9-0.1,1.3-0.2c0.5,0,1.1,0.1,1.6,0.1
		c2.6,0,4.6-2.1,4.6-4.6c0-2.6-2.1-4.6-4.6-4.6c-6.6,0-12-5.4-12-12v-42.2c0-6.6,5.4-12,12-12h224.4c1,0,1.5,0.5,1.7,0.9
		c0.3,0.3,0.6,1,0.4,2c-1.1,4-2.2,8.8-2.8,14.4H269.7c-1.9,0-3.5,1.6-3.5,3.5s1.6,3.5,3.5,3.5h5.7v100.5c0,1.2,0.6,2.3,1.7,3
		c1,0.6,2.3,0.7,3.4,0.1l17.8-9.4l17.8,9.4c0.5,0.3,1.1,0.4,1.6,0.4c0.6,0,1.2-0.2,1.8-0.5c1-0.6,1.7-1.8,1.7-3V309h164
		c-0.3,5.2-0.2,10.9,0.3,17.1H341.8c-1.9,0-3.5,1.6-3.5,3.5c0,1.9,1.6,3.5,3.5,3.5h144.6c0.7,4.8,1.7,9.9,3.1,15.3
		C489.7,349.2,489.4,349.8,489.1,350.1z M314.3,309v94.7l-14.4-7.6c-0.5-0.3-1.1-0.4-1.6-0.4c-0.6,0-1.1,0.1-1.6,0.4l-14.4,7.6V309
		H314.3z"/>
</g>
</svg>
